<svg xmlns="http://www.w3.org/2000/svg" xmlns:xlink="http://www.w3.org/1999/xlink" viewBox="0,0,256,256" width="24px" height="24px"><g fill="#ffffff" fill-rule="nonzero" stroke="none" stroke-width="1" stroke-linecap="butt" stroke-linejoin="miter" stroke-miterlimit="10" stroke-dasharray="" stroke-dashoffset="0" font-family="none" font-weight="none" font-size="none" text-anchor="none" style="mix-blend-mode: normal"><g transform="scale(10.66667,10.66667)"><path d="M12,2c-5.514,0 -10,4.486 -10,10c0,5.514 4.486,10 10,10c5.514,0 10,-4.486 10,-10h-2c0,4.411 -3.589,8 -8,8c-4.411,0 -8,-3.589 -8,-8c0,-4.411 3.589,-8 8,-8c2.20599,0 4.20272,0.90048 5.65039,2.34961l-2.65039,2.65039h7v-7l-2.93945,2.93945c-1.80876,-1.81318 -4.30325,-2.93945 -7.06055,-2.93945z"></path></g></g></svg>