<svg xmlns="http://www.w3.org/2000/svg" xmlns:xlink="http://www.w3.org/1999/xlink" viewBox="0,0,256,256" width="24px" height="24px"><g fill="#ffffff" fill-rule="nonzero" stroke="none" stroke-width="1" stroke-linecap="butt" stroke-linejoin="miter" stroke-miterlimit="10" stroke-dasharray="" stroke-dashoffset="0" font-family="none" font-weight="none" font-size="none" text-anchor="none" style="mix-blend-mode: normal"><g transform="scale(10.66667,10.66667)"><path d="M6,2c-1.09306,0 -2,0.90694 -2,2v16c0,1.09306 0.90694,2 2,2h12c1.09306,0 2,-0.90694 2,-2v-16c0,-1.09306 -0.90694,-2 -2,-2zM6,4h12v16h-12zM9.53125,9.11719l-2.14844,5.6875h1.02734l0.46094,-1.32422h2.20313l0.46484,1.32422h1.03125l-2.15234,-5.6875zM9.97266,10.32422l0.82422,2.35938h-1.64844zM14.82031,10.50195c-0.325,0 -0.61976,0.05687 -0.88476,0.17188c-0.265,0.115 -0.47395,0.27361 -0.62695,0.47461c-0.153,0.201 -0.23047,0.41839 -0.23047,0.65039h0.94922c0,-0.166 0.07003,-0.30411 0.20703,-0.41211c0.137,-0.108 0.31525,-0.16211 0.53125,-0.16211c0.25,0 0.43659,0.06627 0.55859,0.19727c0.122,0.131 0.18555,0.30639 0.18555,0.52539v0.27734h-0.58203c-0.623,0 -1.1025,0.12033 -1.4375,0.36133c-0.335,0.241 -0.50195,0.58416 -0.50195,1.03516c0,0.356 0.13434,0.65644 0.40234,0.89844c0.268,0.242 0.61406,0.36328 1.03906,0.36328c0.437,0 0.80737,-0.15766 1.10937,-0.47266c0.031,0.183 0.06738,0.31353 0.10938,0.39453v0.00195h0.96875v-0.06641c-0.106,-0.226 -0.16016,-0.53016 -0.16016,-0.91016v-1.90625c-0.008,-0.451 -0.15717,-0.80083 -0.45117,-1.04883c-0.294,-0.248 -0.69055,-0.37305 -1.18555,-0.37305zM14.99414,12.82031h0.51367v0.79688c-0.083,0.154 -0.20805,0.27519 -0.37305,0.36719c-0.165,0.092 -0.3413,0.13672 -0.5293,0.13672c-0.203,0 -0.36728,-0.05216 -0.48828,-0.16016c-0.121,-0.108 -0.18164,-0.2555 -0.18164,-0.4375c0,-0.225 0.08863,-0.39653 0.26563,-0.51953c0.177,-0.123 0.44097,-0.18359 0.79297,-0.18359z"></path></g></g></svg>
