<svg xmlns="http://www.w3.org/2000/svg" xmlns:xlink="http://www.w3.org/1999/xlink" viewBox="0,0,256,256" width="48px" height="48px"><g fill-opacity="0" fill="#ffffff" fill-rule="nonzero" stroke="none" stroke-width="1" stroke-linecap="butt" stroke-linejoin="miter" stroke-miterlimit="10" stroke-dasharray="" stroke-dashoffset="0" font-family="none" font-weight="none" font-size="none" text-anchor="none" style="mix-blend-mode: normal"><path d="M0,256v-256h256v256z" id="bgRectangle"></path></g><g fill="none" fill-rule="nonzero" stroke="none" stroke-width="1" stroke-linecap="butt" stroke-linejoin="miter" stroke-miterlimit="10" stroke-dasharray="" stroke-dashoffset="0" font-family="none" font-weight="none" font-size="none" text-anchor="none" style="mix-blend-mode: normal"><g transform="scale(5.33333,5.33333)"><path d="M2,10h44v28h-44z" fill="#3f51b5"></path><path d="M2,14.216l20.81,12.719l3.129,-5.12l-19.331,-11.815h-4.608z" fill="#ffffff"></path><path d="M46,10h-3.609l-19.33,11.814l3.128,5.121l19.811,-12.109z" fill="#ffffff"></path><path d="M26.189,20.271l-3.128,5.12l20.63,12.609h2.309v-5.621z" fill="#ffffff"></path><path d="M2,32.991v5.009h3.31l20.629,-12.608l-3.128,-5.121z" fill="#ffffff"></path><path d="M2,20h44v8h-44z" fill="#ffffff"></path><path d="M20,10h8v28h-8z" fill="#ffffff"></path><g fill="#e53935"><path d="M17.218,20l-15.218,-9.301v2.344l11.382,6.957zM44.309,10l-16.362,10h3.835l14.218,-8.689v-1.311zM33.082,28l12.918,7.895v-2.344l-9.083,-5.551zM15.918,28l-13.918,8.506v1.494h1.392l16.361,-10zM2,22h44v4h-44z"></path><path d="M22,10h4v28h-4z"></path></g></g></g></svg>