<svg xmlns="http://www.w3.org/2000/svg" xmlns:xlink="http://www.w3.org/1999/xlink" viewBox="0,0,256,256" width="24px" height="24px"><g fill="#ffffff" fill-rule="nonzero" stroke="none" stroke-width="1" stroke-linecap="butt" stroke-linejoin="miter" stroke-miterlimit="10" stroke-dasharray="" stroke-dashoffset="0" font-family="none" font-weight="none" font-size="none" text-anchor="none" style="mix-blend-mode: normal"><g transform="scale(10.66667,10.66667)"><path d="M22,2l-3.60352,3.60352c-1.84236,-1.6172 -4.25045,-2.60352 -6.89648,-2.60352c-4.638,0 -8.56217,3.01259 -9.95117,7.18359l2.36719,0.78906c1.059,-3.178 4.04998,-5.47266 7.58398,-5.47266c1.9551,0 3.73468,0.71157 5.12109,1.87891l-3.62109,3.62109h9zM4,15c-1.105,0 -2,0.895 -2,2v2c0,1.105 0.895,2 2,2h2c1.105,0 2,-0.895 2,-2v-2c0,-1.105 -0.895,-2 -2,-2zM11,15c-1.09306,0 -2,0.90694 -2,2v2c0,1.09306 0.90694,2 2,2h2c1.09306,0 2,-0.90694 2,-2v-2c0,-1.09306 -0.90694,-2 -2,-2zM18,15c-1.105,0 -2,0.895 -2,2v2c0,1.105 0.895,2 2,2h2c1.105,0 2,-0.895 2,-2v-2c0,-1.105 -0.895,-2 -2,-2zM11,17h2v2h-2z"></path></g></g></svg>