<svg xmlns="http://www.w3.org/2000/svg" xmlns:xlink="http://www.w3.org/1999/xlink" viewBox="0,0,256,256" width="24px" height="24px"><g fill="#ffffff" fill-rule="nonzero" stroke="none" stroke-width="1" stroke-linecap="butt" stroke-linejoin="miter" stroke-miterlimit="10" stroke-dasharray="" stroke-dashoffset="0" font-family="none" font-weight="none" font-size="none" text-anchor="none" style="mix-blend-mode: normal"><g transform="scale(10.66667,10.66667)"><path d="M20,2c-1.10457,0 -2,0.89543 -2,2c0.00007,0.32465 0.07917,0.6444 0.23047,0.93164l-1.71094,2.13867c-0.16934,-0.04613 -0.34402,-0.06977 -0.51953,-0.07031c-0.46858,0.0007 -0.92204,0.16591 -1.28125,0.4668l-2.72461,-1.36328c0.00285,-0.03445 0.0048,-0.06897 0.00586,-0.10352c0,-1.10457 -0.89543,-2 -2,-2c-1.10457,0 -2,0.89543 -2,2c0.00041,0.03453 0.00171,0.06905 0.00391,0.10352l-2.72266,1.36133c-0.35948,-0.30018 -0.81291,-0.46469 -1.28125,-0.46484c-1.10457,0 -2,0.89543 -2,2c0,1.10457 0.89543,2 2,2c1.10457,0 2,-0.89543 2,-2c-0.00041,-0.03453 -0.00171,-0.06905 -0.00391,-0.10352l2.72266,-1.36133c0.35948,0.30018 0.81291,0.46469 1.28125,0.46484c0.46834,-0.00015 0.92177,-0.16466 1.28125,-0.46484l2.72461,1.36133c-0.00285,0.03445 -0.0048,0.06897 -0.00586,0.10352c0,1.10457 0.89543,2 2,2c1.10457,0 2,-0.89543 2,-2c-0.00039,-0.32399 -0.07948,-0.64303 -0.23047,-0.92969l1.71094,-2.13867c0.16943,0.04547 0.34411,0.06846 0.51953,0.06836c1.10457,0 2,-0.89543 2,-2c0,-1.10457 -0.89543,-2 -2,-2zM20,13c-1.10457,0 -2,0.89543 -2,2c0.00049,0.3033 0.06995,0.60251 0.20313,0.875l-1.70703,2.18945c-0.16202,-0.04216 -0.32868,-0.06382 -0.49609,-0.06445c-0.32465,0.00007 -0.6444,0.07917 -0.93164,0.23047l-2.13672,-1.71094c0.04547,-0.16943 0.06846,-0.34411 0.06836,-0.51953c0,-1.10457 -0.89543,-2 -2,-2c-0.99982,0.00175 -1.84475,0.74158 -1.97852,1.73242l-3.48047,0.99414c-0.37967,-0.4598 -0.94472,-0.72621 -1.54102,-0.72656c-1.10457,0 -2,0.89543 -2,2c0,1.10457 0.89543,2 2,2c0.99982,-0.00175 1.84475,-0.74158 1.97852,-1.73242l3.48047,-0.99414c0.37967,0.4598 0.94472,0.72621 1.54102,0.72656c0.32399,-0.00039 0.64303,-0.07948 0.92969,-0.23047l2.13867,1.71094c-0.04547,0.16943 -0.06846,0.34411 -0.06836,0.51953c0,1.10457 0.89543,2 2,2c1.10457,0 2,-0.89543 2,-2c-0.00014,-0.33291 -0.08339,-0.66053 -0.24219,-0.95312l1.66406,-2.13281c0.18746,0.0568 0.38225,0.08576 0.57813,0.08594c1.10457,0 2,-0.89543 2,-2c0,-1.10457 -0.89543,-2 -2,-2z"></path></g></g></svg>